<svg width="450" height="450" viewBox="0 0 450 450" fill="none" xmlns="http://www.w3.org/2000/svg">
<path d="M51.288 429C47.64 429 45.816 427.112 45.816 423.336V367.464C45.816 363.688 47.64 361.8 51.288 361.8C55 361.8 56.856 363.688 56.856 367.464V423.336C56.856 427.112 55 429 51.288 429ZM74.9843 429C71.3363 429 69.5123 427.112 69.5123 423.336V388.488C69.5123 384.712 71.1443 382.824 74.4083 382.824C77.6723 382.824 79.3683 383.656 79.4963 385.32L79.7843 388.296C81.0643 386.504 82.7603 384.968 84.8723 383.688C86.9843 382.344 89.4803 381.672 92.3603 381.672C97.1603 381.672 101.064 383.208 104.072 386.28C107.144 389.352 108.68 393.864 108.68 399.816V423.336C108.68 427.112 106.888 429 103.304 429C99.6563 429 97.8323 427.112 97.8323 423.336V402.408C97.8323 398.76 97.0963 396.04 95.6243 394.248C94.1523 392.392 92.1683 391.464 89.6723 391.464C86.9203 391.464 84.6803 392.424 82.9523 394.344C81.2243 396.2 80.3603 398.984 80.3603 402.696V423.336C80.3603 427.112 78.5683 429 74.9843 429ZM137.12 429.96C134.24 429.96 131.488 429.608 128.864 428.904C126.304 428.136 123.936 426.984 121.76 425.448C120.16 424.36 119.296 423.176 119.168 421.896C119.104 420.552 119.616 419.272 120.704 418.056C121.792 416.904 122.912 416.36 124.064 416.424C125.28 416.488 126.688 416.968 128.288 417.864C130.848 419.656 133.984 420.552 137.696 420.552C140.32 420.552 142.208 420.2 143.36 419.496C144.576 418.728 145.184 417.352 145.184 415.368C145.184 414.408 144.896 413.64 144.32 413.064C143.744 412.424 142.656 411.848 141.056 411.336C139.52 410.824 137.248 410.28 134.24 409.704C129.76 408.808 126.176 407.336 123.488 405.288C120.8 403.24 119.456 400.008 119.456 395.592C119.456 392.712 120.224 390.248 121.76 388.2C123.296 386.088 125.376 384.456 128 383.304C130.624 382.152 133.536 381.576 136.736 381.576C141.728 381.576 145.952 382.632 149.408 384.744C151.136 385.64 152.096 386.76 152.288 388.104C152.544 389.384 152.192 390.632 151.232 391.848C150.208 393.128 149.088 393.768 147.872 393.768C146.72 393.768 145.344 393.416 143.744 392.712C142.72 392.136 141.632 391.72 140.48 391.464C139.392 391.208 138.208 391.08 136.928 391.08C134.56 391.08 132.864 391.496 131.84 392.328C130.88 393.16 130.4 394.152 130.4 395.304C130.4 396.136 130.624 396.84 131.072 397.416C131.584 397.992 132.544 398.536 133.952 399.048C135.36 399.56 137.408 400.136 140.096 400.776C145.216 401.992 149.184 403.752 152 406.056C154.816 408.36 156.224 411.592 156.224 415.752C156.224 420.424 154.432 423.976 150.848 426.408C147.328 428.776 142.752 429.96 137.12 429.96ZM171.674 429C168.09 429 166.298 427.112 166.298 423.336V388.488C166.298 384.712 168.09 382.824 171.674 382.824C175.258 382.824 177.05 384.712 177.05 388.488V423.336C177.05 427.112 175.258 429 171.674 429ZM171.578 375.24C169.722 375.24 168.122 374.568 166.778 373.224C165.434 371.88 164.762 370.28 164.762 368.424C164.762 366.568 165.434 364.968 166.778 363.624C168.122 362.28 169.722 361.608 171.578 361.608C173.434 361.608 175.034 362.28 176.378 363.624C177.722 364.968 178.394 366.568 178.394 368.424C178.394 370.28 177.722 371.88 176.378 373.224C175.034 374.568 173.434 375.24 171.578 375.24ZM208.987 448.104C201.755 448.104 196.027 445.992 191.803 441.768C190.459 440.36 189.915 438.984 190.171 437.64C190.427 436.296 191.259 435.176 192.667 434.28C194.075 433.32 195.355 433 196.507 433.32C197.659 433.64 198.939 434.344 200.347 435.432C202.587 437.352 205.467 438.312 208.987 438.312C212.763 438.312 215.547 437.16 217.339 434.856C219.131 432.552 220.027 428.872 220.027 423.816V421.224C217.019 424.36 213.211 425.928 208.603 425.928C204.571 425.928 200.955 425.096 197.755 423.432C194.619 421.704 192.155 419.208 190.363 415.944C188.571 412.616 187.675 408.552 187.675 403.752C187.675 398.888 188.571 394.824 190.363 391.56C192.155 388.296 194.619 385.832 197.755 384.168C200.955 382.504 204.571 381.672 208.603 381.672C211.099 381.672 213.499 382.216 215.803 383.304C218.107 384.328 219.995 386.088 221.467 388.584V386.952C221.467 385.352 221.883 384.264 222.715 383.688C223.547 383.112 224.699 382.824 226.171 382.824C229.243 382.824 230.779 384.712 230.779 388.488V423.816C230.779 431.432 228.987 437.384 225.403 441.672C221.883 445.96 216.411 448.104 208.987 448.104ZM209.467 416.424C212.795 416.424 215.515 415.304 217.627 413.064C219.739 410.76 220.795 407.656 220.795 403.752C220.795 399.784 219.739 396.712 217.627 394.536C215.515 392.296 212.795 391.176 209.467 391.176C206.139 391.176 203.483 392.296 201.499 394.536C199.579 396.712 198.619 399.784 198.619 403.752C198.619 407.656 199.579 410.76 201.499 413.064C203.483 415.304 206.139 416.424 209.467 416.424ZM248.047 429C244.399 429 242.575 427.112 242.575 423.336V366.216C242.575 362.44 244.399 360.552 248.047 360.552C251.631 360.552 253.423 362.44 253.423 366.216V388.296C254.447 386.504 255.983 384.968 258.031 383.688C260.079 382.344 262.543 381.672 265.423 381.672C270.223 381.672 274.127 383.208 277.135 386.28C280.207 389.352 281.743 393.864 281.743 399.816V423.336C281.743 427.112 279.951 429 276.367 429C272.719 429 270.895 427.112 270.895 423.336V402.408C270.895 398.76 270.159 396.04 268.687 394.248C267.215 392.392 265.231 391.464 262.735 391.464C259.983 391.464 257.743 392.424 256.015 394.344C254.287 396.2 253.423 398.984 253.423 402.696V423.336C253.423 427.112 251.631 429 248.047 429ZM310.612 430.056C306.068 430.056 302.58 429.224 300.148 427.56C297.78 425.896 296.596 422.568 296.596 417.576V392.136H293.428C289.652 392.136 287.764 390.568 287.764 387.432C287.764 385.96 288.148 384.84 288.916 384.072C289.748 383.24 291.22 382.824 293.332 382.824H296.596V372.264C296.596 368.488 298.42 366.6 302.068 366.6C305.588 366.6 307.348 368.488 307.348 372.264V382.824H314.452C318.228 382.824 320.116 384.36 320.116 387.432C320.116 390.568 318.26 392.136 314.548 392.136H307.348V414.792C307.348 416.968 307.86 418.44 308.884 419.208C309.972 419.976 311.508 420.36 313.492 420.36C315.54 420.36 317.14 420.616 318.292 421.128C319.508 421.576 320.116 422.792 320.116 424.776C320.116 426.376 319.636 427.56 318.676 428.328C317.78 429.032 316.596 429.48 315.124 429.672C313.716 429.928 312.212 430.056 310.612 430.056ZM348.797 430.056C342.077 430.056 336.637 428.04 332.477 424.008C328.317 419.912 326.237 413.864 326.237 405.864C326.237 400.872 327.165 396.584 329.021 393C330.877 389.352 333.469 386.568 336.797 384.648C340.125 382.664 343.933 381.672 348.221 381.672C352.509 381.672 356.157 382.664 359.165 384.648C362.173 386.632 364.477 389.192 366.077 392.328C367.677 395.464 368.477 398.728 368.477 402.12C368.477 404.488 367.997 406.056 367.037 406.824C366.077 407.528 364.669 407.88 362.813 407.88H336.893C337.149 412.488 338.365 415.784 340.541 417.768C342.717 419.688 345.533 420.648 348.989 420.648C352.893 420.648 355.933 419.304 358.109 416.616C359.389 415.272 360.573 414.408 361.661 414.024C362.813 413.576 364.029 413.8 365.309 414.696C366.589 415.592 367.325 416.744 367.517 418.152C367.709 419.56 367.133 421.032 365.789 422.568C363.613 425.192 361.117 427.112 358.301 428.328C355.485 429.48 352.317 430.056 348.797 430.056ZM337.373 399.528H357.821C357.309 396.52 356.189 394.216 354.461 392.616C352.797 390.952 350.653 390.12 348.029 390.12C345.213 390.12 342.877 390.888 341.021 392.424C339.229 393.96 338.013 396.328 337.373 399.528ZM384.172 429C380.524 429 378.7 427.112 378.7 423.336V388.488C378.7 384.712 380.588 382.824 384.364 382.824C385.644 382.824 386.764 383.144 387.724 383.784C388.684 384.36 389.164 385.48 389.164 387.144V389.352C390.316 387.048 392.108 385.192 394.54 383.784C397.036 382.376 399.66 381.672 402.412 381.672C404.396 381.672 405.9 382.216 406.924 383.304C408.012 384.328 408.556 385.736 408.556 387.528C408.556 389.192 408.14 390.408 407.308 391.176C406.476 391.944 405.516 392.264 404.428 392.136C403.916 392.072 403.372 392.04 402.796 392.04C402.22 391.976 401.58 391.944 400.876 391.944C397.74 391.944 395.052 392.968 392.812 395.016C390.636 397.064 389.548 399.944 389.548 403.656V423.336C389.548 427.112 387.756 429 384.172 429Z" fill="#4E73DF"/>
<g clip-path="url(#clip0_125_139)">
<path d="M201.445 115.849C221.667 105.678 254.051 109.178 272.983 132.939C292.653 157.627 289.663 192.58 266.317 213.053C242.583 233.869 207.179 233.548 184.109 212.076C160.449 190.05 160.516 155.877 177.547 134.215C178.203 139.596 180.037 144.116 184.079 147.521C188.12 150.926 192.885 152.625 198.306 151.991C202.344 151.603 206.142 149.938 209.124 147.249C212.106 144.559 214.109 140.992 214.83 137.088C216.552 128.062 212.444 121.536 201.445 115.849ZM216.813 152.151C215.651 152.149 214.501 152.372 213.428 152.807C212.354 153.242 211.38 153.881 210.561 154.686C209.741 155.492 209.093 156.448 208.653 157.499C208.214 158.551 207.992 159.677 207.999 160.813C207.999 162.528 208.52 164.204 209.496 165.629C210.471 167.055 211.857 168.165 213.478 168.819C215.1 169.474 216.883 169.643 218.603 169.305C220.322 168.967 221.9 168.138 223.137 166.922C224.375 165.706 225.215 164.159 225.551 162.476C225.888 160.793 225.706 159.05 225.029 157.468C224.352 155.886 223.209 154.536 221.747 153.59C220.284 152.643 218.567 152.142 216.813 152.151Z" fill="#4E73DF"/>
<path d="M216.813 152.151C218.563 152.145 220.275 152.647 221.733 153.593C223.191 154.539 224.329 155.887 225.003 157.465C225.678 159.044 225.858 160.783 225.521 162.462C225.185 164.141 224.346 165.684 223.112 166.897C221.878 168.11 220.304 168.938 218.589 169.275C216.873 169.613 215.094 169.445 213.476 168.794C211.858 168.143 210.474 167.037 209.499 165.616C208.525 164.195 208.003 162.524 208 160.813C208.002 158.524 208.929 156.328 210.581 154.706C212.232 153.083 214.472 152.165 216.813 152.151Z" fill="white"/>
<path d="M195.577 152.166C206.515 152.166 215.382 143.496 215.382 132.801C215.382 122.106 206.515 113.436 195.577 113.436C184.639 113.436 175.773 122.106 175.773 132.801C175.773 143.496 184.639 152.166 195.577 152.166Z" fill="white"/>
<path d="M229.34 76.1714C244.402 76.3464 261.724 81.1075 277.45 91.1034C282.468 94.2896 283.75 99.9985 280.656 104.446C277.673 108.755 272.357 109.55 267.234 106.947C261.5 104.03 255.796 100.757 249.696 98.7809C198.657 82.274 146.998 120.734 149.481 173.229C151.412 214.125 188.121 246.395 229.944 243.952C286.308 240.686 319.534 181.563 292.251 132.99C290.081 129.126 289.566 125.437 292.251 121.777C293.167 120.51 294.394 119.489 295.819 118.809C297.245 118.128 298.823 117.809 300.407 117.882C301.992 117.955 303.533 118.416 304.887 119.224C306.241 120.032 307.365 121.161 308.156 122.506C317.797 138.59 322.219 156.044 320.832 174.585C320.237 182.521 318.736 190.366 316.358 197.975C312.766 209.276 306.905 219.764 299.118 228.823C291.676 237.674 282.623 245.103 272.417 250.733C256.534 259.482 239.332 263.857 221.093 262.552C182.26 259.708 153.791 241.101 138.259 206.192C123.815 173.711 128.155 142.221 149.444 113.523C167.056 89.7473 195.607 76.1714 229.34 76.1714Z" fill="#25E6B1"/>
<path d="M216.604 336.993C156.228 334.273 103.556 303.986 71.8952 242.669C49.8612 200.009 48.78 155.315 65.4453 110.344C69.6939 99.1482 75.1955 88.4456 81.8497 78.4317C84.8919 73.78 90.5589 72.1104 94.6078 74.6185C100.215 78.1036 101.513 83.1271 98.0303 88.4349C80.4827 115.208 72.3724 144.481 73.6997 176.255C74.4901 194.942 78.6359 212.943 86.7263 229.888C109.692 278.008 148.161 307.223 201.46 316.177C244.007 323.315 283.109 313.37 317.834 287.88C328.493 280.089 337.977 270.867 346.004 260.488C347.593 258.473 349.935 257.156 352.515 256.827C355.096 256.497 357.704 257.182 359.769 258.731C364.019 261.997 364.504 267.808 360.813 272.424C346.116 290.918 327.593 306.173 306.455 317.19C281.334 330.314 254.468 336.789 216.604 336.993Z" fill="#25E6B1"/>
<path d="M225.701 40.307C241.86 40.307 257.586 42.8953 272.678 48.6916C278.426 50.8789 284.026 53.5256 289.544 56.2524C295.062 58.9792 296.792 64.2725 294.346 69.1138C291.803 74.1518 286.062 75.8142 280.768 72.8759C262.492 62.7341 242.777 58.4835 221.906 59.023C171.88 60.2916 127.447 95.3103 116.158 143.008C106.859 182.336 116.657 216.968 144.835 246.54C147.341 249.173 149.145 251.943 148.459 255.676C147.811 259.212 145.82 261.771 142.285 262.967C138.751 264.163 135.343 263.806 132.808 261.195C128.563 256.94 124.593 252.431 120.922 247.692C116.822 242.196 113.034 236.483 109.574 230.58C102.86 219.136 98.2488 206.63 95.9505 193.63C89.3888 157.481 96.3457 123.957 118.424 94.2459C144.03 59.7813 179.188 41.9402 222.816 40.3361C223.763 40.2778 224.754 40.307 225.701 40.307Z" fill="#25E6B1"/>
<path d="M397 166.536C397.26 180.309 395.757 194.06 392.526 207.468C390.975 213.957 385.517 217.077 379.708 215.014C374.891 213.301 372.565 208.875 373.862 203.458C377.004 190.611 378.309 177.4 377.74 164.203C375.692 121.016 358.015 85.1709 324.709 56.668C301.191 36.5521 273.55 25.1927 242.598 21.4888C237.416 20.8691 232.159 20.8181 226.939 20.6868C220.362 20.5264 216.187 16.9247 216.239 11.2085C216.291 5.49237 220.497 1.91978 227.133 1.99998C261.306 2.40099 292.75 11.6168 321.085 30.3912C357.398 54.4515 380.931 87.3485 391.922 128.82C395.134 141.151 396.839 153.812 397 166.536Z" fill="#25E6B1"/>
<path d="M357.876 169.438C357.876 197.562 348.494 224.918 331.154 247.355C313.813 269.793 289.46 286.086 261.791 293.764C259.084 294.493 256.355 295.179 253.589 295.747C247.758 296.95 242.747 294.165 241.531 289.142C240.189 283.615 243.291 278.891 249.361 277.556C276.652 271.556 299.32 258.082 315.724 235.947C341.076 201.803 345.468 164.75 329.399 125.51C327.08 119.845 328.788 114.515 333.94 112.284C339.093 110.053 344.417 112.408 346.914 117.993C354.132 134.227 357.862 151.737 357.876 169.438Z" fill="#25E6B1"/>
</g>
<defs>
<clipPath id="clip0_125_139">
<rect width="343" height="335" fill="white" transform="translate(54 2)"/>
</clipPath>
</defs>
</svg>
