<svg width="343" height="335" viewBox="0 0 343 335" fill="none" xmlns="http://www.w3.org/2000/svg">
<g clip-path="url(#clip0_125_140)">
<path d="M147.445 113.849C167.667 103.678 200.051 107.178 218.983 130.939C238.653 155.627 235.663 190.58 212.317 211.053C188.583 231.869 153.179 231.548 130.109 210.076C106.449 188.05 106.516 153.877 123.547 132.215C124.203 137.596 126.037 142.116 130.079 145.521C134.12 148.926 138.885 150.625 144.306 149.991C148.344 149.603 152.142 147.938 155.124 145.249C158.106 142.559 160.109 138.992 160.83 135.088C162.552 126.062 158.444 119.536 147.445 113.849ZM162.813 150.151C161.651 150.149 160.501 150.372 159.428 150.807C158.354 151.242 157.38 151.881 156.561 152.686C155.741 153.492 155.093 154.448 154.653 155.499C154.214 156.551 153.992 157.677 153.999 158.813C153.999 160.528 154.52 162.204 155.496 163.629C156.471 165.055 157.857 166.165 159.478 166.819C161.1 167.474 162.883 167.643 164.603 167.305C166.322 166.967 167.9 166.138 169.137 164.922C170.374 163.706 171.215 162.159 171.551 160.476C171.888 158.793 171.706 157.05 171.029 155.468C170.352 153.886 169.209 152.536 167.747 151.59C166.284 150.643 164.567 150.142 162.813 150.151V150.151Z" fill="white"/>
<path d="M175.34 74.1714C190.402 74.3464 207.724 79.1075 223.45 89.1034C228.468 92.2896 229.75 97.9985 226.656 102.446C223.673 106.755 218.357 107.55 213.234 104.947C207.5 102.03 201.796 98.7567 195.696 96.7809C144.657 80.274 92.9978 118.734 95.4808 171.229C97.4121 212.125 134.121 244.395 175.944 241.952C232.308 238.686 265.534 179.563 238.251 130.99C236.081 127.126 235.566 123.437 238.251 119.777C239.167 118.51 240.394 117.489 241.819 116.809C243.245 116.128 244.823 115.809 246.407 115.882C247.992 115.955 249.533 116.416 250.887 117.224C252.241 118.032 253.365 119.161 254.156 120.506C263.797 136.59 268.219 154.044 266.832 172.585C266.237 180.521 264.736 188.366 262.358 195.975C258.766 207.276 252.905 217.764 245.118 226.823C237.676 235.674 228.623 243.103 218.416 248.733C202.534 257.482 185.332 261.857 167.093 260.552C128.26 257.708 99.7907 239.101 84.2588 204.192C69.8155 171.711 74.1552 140.221 95.4435 111.523C113.056 87.7473 141.607 74.1714 175.34 74.1714Z" fill="white"/>
<path d="M162.604 334.993C102.228 332.273 49.5556 301.986 17.8952 240.669C-4.13879 198.009 -5.21998 153.315 11.4453 108.344C15.694 97.1482 21.1955 86.4456 27.8497 76.4317C30.8919 71.78 36.5589 70.1104 40.6078 72.6185C46.2151 76.1036 47.5125 81.1271 44.0303 86.4349C26.4827 113.208 18.3724 142.481 19.6997 174.255C20.4901 192.942 24.6359 210.943 32.7263 227.888C55.6923 276.008 94.1605 305.223 147.46 314.177C190.007 321.315 229.109 311.37 263.834 285.88C274.493 278.089 283.977 268.867 292.004 258.488C293.593 256.473 295.935 255.156 298.515 254.827C301.096 254.497 303.704 255.182 305.769 256.731C310.019 259.997 310.504 265.808 306.813 270.424C292.116 288.918 273.593 304.173 252.455 315.19C227.334 328.314 200.468 334.789 162.604 334.993Z" fill="white"/>
<path d="M171.701 38.307C187.86 38.307 203.586 40.8953 218.678 46.6916C224.426 48.8789 230.026 51.5256 235.544 54.2524C241.062 56.9792 242.792 62.2725 240.346 67.1137C237.804 72.1518 232.062 73.8142 226.768 70.8759C208.492 60.7341 188.777 56.4835 167.906 57.023C117.88 58.2916 73.4469 93.3103 62.1577 141.008C52.8594 180.336 62.6573 214.968 90.8355 244.54C93.3409 247.173 95.1453 249.943 94.4593 253.676C93.8106 257.212 91.8197 259.771 88.2853 260.967C84.7509 262.163 81.3433 261.806 78.8081 259.195C74.5628 254.94 70.5932 250.431 66.9224 245.692C62.8222 240.196 59.0336 234.483 55.5736 228.58C48.8596 217.136 44.2488 204.63 41.9505 191.63C35.3888 155.481 42.3457 121.957 64.4245 92.2459C90.0302 57.7813 125.188 39.9402 168.816 38.3361C169.763 38.2778 170.754 38.307 171.701 38.307Z" fill="white"/>
<path d="M343 164.536C343.26 178.309 341.757 192.06 338.526 205.468C336.975 211.957 331.517 215.077 325.708 213.014C320.891 211.301 318.565 206.875 319.862 201.458C323.004 188.611 324.309 175.4 323.74 162.203C321.692 119.016 304.015 83.1709 270.709 54.668C247.191 34.5521 219.55 23.1927 188.598 19.4888C183.416 18.8691 178.159 18.8181 172.939 18.6868C166.362 18.5264 162.187 14.9247 162.239 9.20852C162.291 3.49237 166.497 -0.0802212 173.133 -2.00933e-05C207.306 0.400985 238.75 9.61682 267.085 28.3912C303.398 52.4515 326.931 85.3485 337.922 126.82C341.134 139.151 342.839 151.812 343 164.536V164.536Z" fill="white"/>
<path d="M303.876 167.438C303.876 195.562 294.494 222.918 277.154 245.355C259.813 267.793 235.46 284.086 207.791 291.764C205.084 292.493 202.355 293.179 199.589 293.747C193.758 294.95 188.747 292.165 187.531 287.142C186.189 281.615 189.291 276.891 195.361 275.556C222.652 269.556 245.32 256.082 261.724 233.947C287.076 199.803 291.468 162.75 275.399 123.51C273.08 117.845 274.788 112.515 279.94 110.284C285.093 108.053 290.417 110.408 292.914 115.993C300.132 132.227 303.862 149.737 303.876 167.438V167.438Z" fill="white"/>
</g>
<defs>
<clipPath id="clip0_125_140">
<rect width="343" height="335" fill="white"/>
</clipPath>
</defs>
</svg>
